<svg xmlns="http://www.w3.org/2000/svg" viewBox="0 0 150 163.7">
<!-- SVG created with Arrow, by QuiverAI (https://quiver.ai) -->
  <style type="text/css">.cls-0 {fill:#142855;}
.cls-1 {fill:#FFFFFF;}
.cls-2 {fill:#E2BC5D;}
.cls-3 {fill:url(#SVGID_1_);}
.cls-4 {fill:#DCB965;}</style>
  <path class="cls-1" d="m49 12.7-0.8 28.3c5.8-0.9 14.1-1.2 21.1 1.7-4-2.2-9.6-4.3-17.6-4.5-1.1 0.1-0.5-0.3-0.7-1.2l0.3-24.8-2.3 0.5zm50-0.2 0.6 25c0 0.4-0.6 0.9-1 0.8-6.8 0.1-12.7 1.8-18.3 4.3 4.7-1.2 10.1-2.9 21.3-1.6l-0.7-28.4-1.9-0.1z"/>
  <path class="cls-1" d="m53.3 8.6-0.5 27.9c6.6 0.1 14.4 1.7 21 7.2v-27.4c-2.9-3.3-10.2-8-20.5-7.7zm22.5 7.7v27.8c4.6-4 11.6-7.5 21.6-7.7l-0.5-27.8c-8.2-0.2-16 2.5-21.1 7.7z"/>
  <path class="cls-2" d="m141.1 62.4c0.9-0.5 1.2-2.1-0.2-2.7h-2.6v-11.7h3c1.2-0.3 1.1-2.1-0.1-2.3h-35.2l-1.3-29.2c-0.1-0.9-1.9-0.9-2-0.8l0.8 26.6c0 0.7-0.5 0.6-0.9 0.6-3.8-0.4-12.6-1.5-21.9 1.6l-4.8 2c-0.6 0.2-1.3 0.2-1.9 0-2.6-1.1-9.4-4.3-18.6-3.9-2.4 0-5.1 0.1-8.3 0.4-0.3 0-0.9-0.1-0.9-0.7l0.8-26.7c-1-0.1-2.1 0.1-2.1 0.9l-1.2 29.2h-34.7c-1 0.4-1.3 2.1 0.2 2.4h2.7v11.6l-3 0.1c-1.1 0.6-1.1 2.3 0.2 2.6h2.8v83.6h-3c-1.1 0.5-1.3 2.2 0.2 2.5h2.8v5.1c0.3 2 2.8 1.7 2.5-0.3l0.1-4.8h24.9v4.9c-0.2 1.9 2.7 2.4 2.7-0.1-0.1-0.4 0-1.8 0-4.8h31.7v4.4c-0.5 2.7 2.9 2.7 2.4 0.3v-4.7h31.3v4.8c-0.4 2.2 3 2.5 2.8 0-0.1-0.2-0.1-1.6-0.1-4.8h25.6v4.9c-0.5 2 2.4 2.4 2.6 0.2-0.1 0-0.1-0.5-0.1-5.1h2.8c1.3-0.6 1.3-2-0.1-2.6h-2.7v-83.4l2.8-0.1zm-101.6 83.6h-3.8c1.6-0.3 2.9-1.6 3.7-3.1l0.1 3.1zm-0.1-9.2c-2.8-4.5-6.9-2.7-6.7-0.1 0.7 1.9 2.6 1.8 3.1 0.2 2.1 0.6 3 5.9-1.2 6.7-2.1 0.2-2.1-2.2-3.8-1.7-2.5 1.1-0.3 3.4 2.2 4.1h-4.7v-29.7c7.8-3.5 10.9 2.7 7.9 6.4-1.2-2.4-3.8-1.7-4 0.6 0.2 3.3 5.1 3.6 7.2-0.9v14.4zm0-19.9c-1-2.5-4-5-7.9-4.3 3.8-3.3 7.2-7.9 7.9-13.6v17.9zm0-25.2c-0.8-8.1-6.2-16.3-8.9-20.9-1.4-4.2 2.3-6.8 4.9-5 1.1 2.9 3.5 1.2 2.9-0.4-0.8-1.5-2-2.2-3.3-2.8h4.4v29.1zm0-31.9h-2.3c0.9-0.5 1.7-1.4 2.3-2.4v2.4zm0-8.7c-0.7-1.2-2.3-2.4-3.6-3.1l3.6 0.1v3zm-11.1-2c2.7 0.1 6.4 0.5 8 1.9 3.4 2.8 0.5 7.7-2.5 6.2 0.4-2.3-3.1-2.7-2.9 0.1 0.2 1.1 0.7 1.7 1.5 2.4l-4.1 0.1v-10.7zm0 13.5h3.6c-1.4 0.5-2.9 1.7-3.6 2.9v-2.9zm0 9.3c4.7 6.4 9 14.8 9 23.7s-5.3 13.3-9 16.7v-40.4zm-9.9-23.9c-1.3 0.6-3.1 2.1-3.9 3.2v-3.2h3.9zm-3.9 9.3c0.6 0.9 1.7 2 2.6 2.5h-2.6v-2.5zm0 5.3h3.9c-1.8 0.4-3.1 1.6-3.9 2.8v-2.8zm0.1 83.4v-3.4c0.6 1.4 2.1 3 3.9 3.4h-3.9zm11 0h-4.4c1.1-0.3 4.2-2.1 2.7-3.8-0.6-0.6-1.8-0.5-2.1 0.3-0.8 1.1-5.3 2.7-5.3-3.7 0-5.2 2.6-13.5 9.1-20.5v27.7zm0.1-31.2c-4.6 3.8-9.4 10.4-11.1 18.1v-61.7l0.2-0.1c2.6 4 6.9 2 6.4-0.3-0.4-1.3-2.2-1.5-2.8 0-2.5-0.2-2.8-4.8 0.5-5.6 3-0.5 4.9 1.6 6.8 3.6v46zm0-49.4c-1.5-1.5-2.9-2.3-4.5-2.8h4.5v2.8zm0-5.6h-4.2c1.5-1.1 2.1-2.4 1.3-3.7-0.7-1.1-2.9-0.7-2.6 1.1-3.3 1.7-5.8-3.9-1.7-6.6 1.8-0.8 4.7-1.4 7.2-1.5v10.7zm29.5 86.2h-6.4c3.1-1 4.5-3.1 2.6-4-0.5-0.2-1.3-0.1-1.7 0.6-2.2 3.1-6.5 0.3-5.7-3.7 0.3-1.4 1.3-2.4 2.4-2.2 0.5 2.3 2.5 1.5 3 0.5 0.9-1.9-3.5-5.5-7.3-0.5v-63.2c2.3 4.8 6.8 5.6 9.6 9.2 3.1 3.9 3.5 9.8 3.5 14v49.3zm0-62.4c-3.7-6.7-8.8-6.9-10.9-11.3-1.9-5.4 2.3-8 5.4-7.1 2.9 0.4 4.5 4.8 2.2 5.8-1.9-1.9-4.3 0.4-2.1 2.2 1.7 1 3.8 0.5 5.4-1.8v12.2zm0-17.2c-0.9-1.8-2.5-3.2-4.8-3.8h4.8v3.8zm0-6.6h-5.9c3-2.1 1.3-4.9-0.4-4.2-0.5 0.3-1.2 1-0.8 1.7-2.7 1.6-5.6-1.9-3.2-5.6 1.8-1.9 4.7-2.5 10.3-2.6v10.7zm2.5-11.7 5.5 0.1c-2.2 0.4-4.6 2.2-5.4 4.1l-0.1-4.2zm0 9.6c0.4 0.7 0.8 1.4 1.5 2h-1.5v-2zm0 4.8h6.9c1 0 1.5-1.6 0.3-2.5 3.8-3-0.2-6.4-1.6-3.9-0.2 0.5-0.2 1.1 0.3 1.5-3.4 1.7-5.5-3.3-2.2-6 4-2.7 10.4-1 10.4 6.6-0.2 5.9-5.2 7.4-9.6 13.8-1.7 2.4-3.3 5.5-4.5 10.3v-19.8zm16 83.5h-5.1c2.3-0.7 4.3-2.5 5.1-5.1v5.1zm0-11.3c-1.3-3-4.4-5.3-7-6.8-6.3-3.6-8.8-9.5-9-20.2-0.7-0.1-2.2-2.4-2.5-2.6v40.9h7.4c-2.1-0.7-4-2.5-4.9-4.4v-20.4c1.9 4.2 5.2 6.8 8.6 8.8 2.2 1.4 5.4 3.4 5.3 7.9-0.2 6-8.4 8.1-11.3 3.7-2-3 0.6-6.3 3.1-4.9-0.9 2.1 1.9 3.3 2.8 1 0.5-1.8-2.5-5.6-7-2.9-0.6 0.5-1.1 1.2-1.5 2.2v-17.7l0.9 2.4 15.1 13zm0-80.4c-1.3-2.9-3.9-5.4-7.3-6.1h7.3v6.1zm2.5-6.1h7.2c-2.9 0.6-6 2.9-7.2 6.2v-6.2zm16.4 97.8h-4.8c1.8-0.5 4-2.2 4.8-4.6v4.6zm0-9c-2.3-4.4-8.3-4.1-8.8 0.2 0.5 2.3 3.4 1.8 2.9-0.2 2-1.9 5.4 1.4 2.9 4.7-2.9 3.5-11.7 3.3-11.6-4 0.3-5.1 5.1-6.6 7.2-8 3.8-2.4 6.3-5.6 7.4-8.6v15.9zm0-37.3c0 8.7 0.4 20.2-9.7 27.7-3 1.6-6 4-6.7 7.3v-10.7c0-1.1-0.4-0.9-2.5-0.6v11.3c-0.4-2.1-3.3-4.4-6.3-6.3-6-3.4-9.1-7.3-9.5-28.4v-3c0.4-11 2.7-19.6 11.7-28.6 1.8-1.5 3.3-3.7 4.1-6l0.1 17.3c0.9-0.4 1.6-0.7 2.4-0.1v-17.2c0.7 1.6 2.1 3.7 4.3 5.7 7.3 6.8 10.1 14.5 11.3 21.6 1.2 6.3 0.8 3.3 0.8 10zm0-47.4c-0.9-1.9-3.2-3.7-5.6-4.3l5.6 0.1v4.2zm0 7.5h-1.5c0.7-0.5 1.1-1.4 1.5-2.1v2.1zm0 22.3c-2-6.5-6.2-11.5-12-17-5.2-5.5-2.8-14.7 4.9-14.8 6.3 0.1 6.9 7.1 2.3 7.8l-1.2-0.5c1.5-2-2.3-4-2.9-0.7 0 0.8 0.6 2.2 1.2 2.8-0.8 0.6-0.6 2.4 0.9 2.8h6.8v19.6zm15-34h0.1-0.1zm-3.8-0.1c2 0.1 3.2 1.7 3.9 3.2l-0.2-3.2h-1.7-2zm3.9 9.3v2.5h-2.7c1-0.5 2.1-1.4 2.7-2.5zm-12.6-8.3c5.4 0.1 10.4 0.6 10.5 4.9 0 3-2.9 4.5-3.7 3.3 0.7-1.5-2.2-3.3-2.7-0.6 0 1.3 0.8 2.1 1.5 3.1h-5.7l0.1-10.7zm0 13.6h4.5c-2 0.4-3.7 1.8-4.5 3.4v-3.4zm0 9c2.3 3.5 6 2.4 5.9-0.2-0.4-1.8-2.4-1.4-2.9-0.3-2.9-1.7-0.7-7.2 3.9-5.7 4 1.2 5.5 7 0.6 10.6-3 2.1-5.2 3.6-7.4 7.4l-0.1-11.8zm12.4 74.4h-3.8 0.2-8.8v-50.7c0.3-1.3-0.5-9.7 6.4-15.3 2-1.4 5-3.3 6.1-6.4l-0.1 63.2c-2.6-4.2-6.9-3.2-6.9 0 1.1 2.2 3 1.1 3-0.1 3.2 0.3 3.4 6.7-1.2 6.9-2-0.2-1.8-2.2-3.7-1.6-2 0.9-0.4 3.3 2.3 4h2.9-0.2 3.8zm0.2-79c-0.7-1.9-2.6-3.8-5.6-4.4h5.5l0.1 4.4zm2.6-19h4c-1.7 0.7-2.3 1.4-4 3.3v-3.3zm0 9.2c0.7 1.2 1.4 1.9 2.7 2.5h-2.7v-2.5zm0 88.8h-3.3 3.3-2.8-0.4 0.4-3.7c2-0.4 3.3-1.9 3.9-3.4v3.4h2.6zm0-83.4zm0 29.3v-0.2 0.2zm0 25.1v-0.1 0.1zm11.3 29h-4.6c2.6-0.7 4.2-2.9 2.2-4.1-1.6-0.3-1.6 1.5-3.4 1.7-4.1-0.2-4.3-5.9-1.6-6.8 1 2.2 2.8 1.4 3-0.1 0-1.3-1.5-2.6-3-2.4-1.6 0.1-2.8 1.3-3.9 2.6v-14.5c2.3 4.6 7.6 4.6 7.4 0.9-0.2-2.3-3-2.9-3.8-0.6-3.3-2.7-0.9-9.3 7.7-6.6v29.9zm0.1-33.7c-4.7-4.4-9-8.7-8.9-16.9 0.1-8 3.7-15.8 8.8-23.5l0.1 40.4zm0-46.9c-0.7-1.1-2.1-2.5-3.7-2.9l3.6 0.1 0.1 2.8zm0-5.6h-4.6c3.2-1.7 1.9-5.2 0-4.4-0.4 0.2-0.8 0.7-0.6 1.6-3.5 2.1-6.3-3.6-2.2-6.3 1.4-0.7 3.8-1.5 7.3-1.5l0.1 10.6zm2.4-10.7c3.3 0 6.6 0.6 8.3 2 2.6 2.5 1.2 7.3-2.4 6.3-0.2-0.2-0.2-0.3-0.2-0.5 0.5-1.9-2.8-2.8-3 0 0.1 1.2 0.8 2.1 1.8 2.8h-4.5v-10.6zm0.1 13.5h4.8c-1.3 0.5-2.9 1.3-4.8 2.8v-2.8zm11.6 83.4h-4.3c1.4-0.3 3.5-1.9 4.3-3.5v3.5zm-0.1-13.1c-1.3-6.6-5-12.9-11.5-18.3v-45.8c2.3-1.9 4.1-4.2 7.3-3.4 2.7 0.7 3.3 4.7 0.6 5.4-0.8-1.9-3.2-1.4-3.1 0.6 0.5 2.2 4.3 3.3 6.7-0.3v61.8zm0.1-67.1c-0.8-1.4-2.1-2.6-3.7-3.2h3.7v3.2zm0-6.2h-2.4c1-0.5 2-1.5 2.4-2.6v2.6zm0-8.3c-0.8-1.4-2.2-2.7-3.7-3.3h3.7v3.3zm-25.5 47.7zm0 18zm0 29zm2.2-54.3v-29.1h2.5-0.1 0.8c-1.4 0.5-3.6 2.3-3.7 3.2 0.1 1.8 2.3 2.3 2.8 0.3 1.3-1.7 5.8-1.8 5.1 3.8-3.6 6-7.3 11.7-9.4 22v0.9l2-1.1zm-2 7.3v-0.1 0.1zm0 17.9v0.1-0.1zm0 29.1zm0-29.1c0.9-1.5 3.2-4.8 7.6-4.3-3.4-3.6-6.6-7.3-7.6-13.7v18zm20.8 26.6c-2.5 0.6-2.7-1.5-3.9-1.6-2.2 0-3 2.7 1.3 4.1h-4.6v-27.9c6.5 5.5 12.1 22.2 7.2 25.4z"/>
  <linearGradient id="SVGID_1_" x1="79.27" x2="75.27" y1="123.1" y2="148.2" gradientUnits="userSpaceOnUse">
    <stop stop-color="#CBAF66" offset="0"/>
    <stop stop-color="#3A3A39" offset=".742"/>
  </linearGradient>
  <path class="cls-3" d="m73.9 122.9c0.5-0.5 2.2-0.5 2.3 0.7l0.1 22.5h5.1c-2.5-1-4.7-2.7-5.2-7.5 0.8-4 2.4-6.9 5.7-9.7v-4.3c0.3-1.5-0.3-2.7 0.2-3.9l0.5-1.8-4.2 1.8h-4.7l0.9 1.9"/>
  <path class="cls-4" d="m63 112 0.5-2.6-0.6 0.2c-0.8 1.3-0.3 1.6 0.1 2.4zm-1-3.9-1.1 0.9 1.1 0.5 0.6-0.6-0.6-0.8zm6.9-10.2-1.2 0.2 0.2 0.5 2-0.6-1-0.1zm-1.3 0.1c3.5-0.3 2.2-4.4 1.3-4.6l-2.1 0.7c-0.6 0.8 0 3.3 0.8 3.9zm-0.5-3.8 1.5-1.1-0.6-0.1 0.8-0.6-0.1-1.7-0.6-1.8-2.4 0.5c-0.3 1.3 0.3 3.2 0.8 4.5l0.6 0.3zm-1.7-5.2 2.7-0.4 0.1-1.7-0.2-0.3c0.2-0.5-0.3-3.1-1.5-3-2.4-0.1-1.4 4.5-1.1 5.4zm20.7 12.4c-0.6 0.5-0.5 1.1-0.1 1.5l0.9 0.1 0.2-0.6-1-1zm0.5 1c0.8-0.5 2.3-2 2.3-3l-2-0.3c-1 0.9-0.9 1.9-1 2.5l0.7 0.8zm1.3-3.4h1.1c0.9-1 1.4-2.6 1.3-3l-1.8-0.6c-0.8 0.7-1.1 2.7-0.6 3.6zm0.7-3.4 1.9 0.8c0.7-1.4 2-5.4 0.3-5.4-1.3 0-1.8 1-2.2 2.9h0.3l-0.5 0.2 0.2 1.5zm-8.1 1 0.9 0.3c1-0.5 1.5-2.5 0.6-3l-2.1-0.3c-0.9 0.4-0.4 3.3 0.6 3zm0.1 0.7v0.3l0.5-0.2-0.5-0.1zm0.5-3.7h0.9c0.4-1.5 0.9-2.6 0.7-4.7l-2.3-0.3c-0.6 2.4-0.3 3.3 0.7 5zm-0.8-6 2.4 1.3c0.8-1.5 0.7-4.2 0.2-5.3-0.3-0.5-2-1-2.5 0.3-0.5 1-0.3 3.5-0.1 3.7zm-6.3-2c0.4 0.5 1.5 0.8 2.1 0.5 0.5-0.4 0.6-4 0-5.2-0.5-0.8-2.4-0.8-2.6 0.5-0.3 1.5 0.1 3.8 0.5 4.2zm-0.5 1c0 1.8 0 3.4 0.9 4.1h1.5c0.5-0.3 0.6-3.1 0.3-4.1l-0.6-0.5c-0.5 0-1.7-0.4-2.1 0.5zm0.6 4.8c0.3 0.3 1.3 0.2 1.8 0l0.2-0.5-2.6 0.2 0.6 0.3zm-0.6 1c-0.4 1 0.1 3.2 1.6 3.5 1.6-0.5 1.8-2.5 1.4-3.8-0.1-0.4-2.5-0.4-3 0.3zm1.7 4.6v0.4l0.4-0.3-0.4-0.1zm4.7 1.6c0.8 0.1 0.6 0 1.1 0h-1.1zm0.6 0.4-1.1-0.4-1.7 0.1-0.7-0.7-2-0.1-2 0.2 1.7 3.9-2.1-3.9c-3-0.1-4.7 0.9-4.6 2l0.4 0.5h-0.7l0.8 1h-0.6l0.2 0.8c1.1 1.2 2.6 1.7 4 2.2l3.4 1.5v-0.5l1.2 0.6-0.8-1.2 1.3 1.4-0.7-1.5 0.2-0.2-1.5-0.1 1.9-0.9-4.5 0.9c1.5 0.6 2.5 0.6 3.3 1.5l-1.2 0.1 0.8 0.9-1.6-0.5 0.2 0.4-1.4-0.6 0.7 1.2h1l-1.7 0.4-0.1 2.4-0.2-3.3-1.5-1.5-2.8-2.1v0.6l0.8 0.5h-0.9l0.9 0.6h1.6l-2 0.2-1.1 0.6 0.5 0.4-1 0.6 1.2 0.1c-0.7-0.1-2 0.5-1.9 1.6 0.3 0.7 1.2 1.2 1.3 1.5l-1.9-1.1-0.6 0.9-1.1-0.6-0.7 3.5 0.7 1.5 0.3 0.2 0.3 0.6 0.5 0.3 1.9 2.6 0.6-0.5-0.1 0.5 0.6-0.7-0.3 0.7h0.8l-1.6 0.3c1.6 1.2 2 2.3 3.6 1.7l0.2-0.4-0.2 0.9 1.9-0.2 0.5-0.7-0.4 0.9 1.2-0.5 0.2-1-0.3 1.3 0.3-0.3v0.6l0.1-0.8 0.2-1.3-0.1 1.8-1.4 1-2.4 0.2 0.3 0.3h5.4l-2.1 0.6 3.2-0.1 0.4-0.3-2-0.2h2.5l-1.3-0.5 1.3 0.3 1.6 0.2-0.6-0.3 0.9 0.1 1.6-0.8v-0.3h0.7v-0.7l0.7-0.2 1-1.8 0.2-0.5v-0.3-0.1l0.3-0.6-0.2-0.3c0.9-1.2 1.4-2.7 0.9-4l0.4 0.4 0.6-4.6-1.2-0.3h1.3l0.4-2-0.2-0.2h0.3v-1l-0.2-0.8c-0.9-1-2.3-1.9-4-1.2l0.9-1-1.4-0.8-0.3-0.5-1.2-1.1zm-3 4.7 2.4 1.9 0.5 0.5-2-0.7-1.7-1.7h0.8zm-8.3 3.7h1l2.2 2.6-2.2-1.3 2.4 1.3-0.9-0.3 1.2 1.2 0.5 2.5-1.2-2.4-1.1-0.4 1.3 0.4-3.3-2.9 2.1 1-2-1.7zm-0.3-0.3h1.1l2.1 2.6-2.4-2-0.8-0.6zm0.3 3.8 1.2 1.1-1.2-1.1z"/>
</svg>