<svg xmlns="http://www.w3.org/2000/svg" viewBox="0 0 165.8 128.7">
<!-- SVG created with Arrow, by QuiverAI (https://quiver.ai) -->
  <style type="text/css">.cls-0 {fill:#FFFFF6;}
.cls-1 {fill:#FFFEF4;}
.cls-2 {fill:#FBDEB2;}
.cls-3 {fill:#AE3C2D;}
.cls-4 {fill:#EFA06A;}
.cls-5 {fill:#CF5938;}
.cls-6 {fill:#FCBC30;}
.cls-7 {fill:#FCDBAA;}
.cls-8 {fill:none;stroke:#DA764E;stroke-width:0.5424;stroke-miterlimit:10;}
.cls-9 {fill:#77BFBB;}
.cls-10 {fill:#2E8F91;}
.cls-11 {fill:#FFFFFF;}
.cls-12 {fill:#FFFDFA;}
.cls-13 {fill:none;stroke:#FEEDCA;stroke-width:0.5;stroke-linecap:round;stroke-miterlimit:10;}
.cls-14 {fill:#FEFFFF;}
.cls-15 {fill:#FAB543;}
.cls-16 {fill:#FCD08F;}
.cls-17 {fill:#F8962D;}
.cls-18 {fill:#0A1833;}
.cls-19 {fill:none;stroke:#0A1833;stroke-width:0.5;stroke-miterlimit:10;}
.cls-20 {fill:#BCCECE;}
.cls-21 {fill:none;stroke:#AD4C43;stroke-width:0.4072;stroke-linecap:round;stroke-linejoin:round;stroke-miterlimit:10;}
.cls-22 {fill:#EF9D75;}
.cls-23 {fill:none;stroke:#EBBA96;stroke-width:0.5;stroke-linecap:round;stroke-miterlimit:10;}
.cls-24 {fill:#F18F2F;}
.cls-25 {fill:#FFFDF7;}
.cls-26 {fill:none;stroke:#0A1833;stroke-width:0.396;stroke-linecap:round;stroke-miterlimit:10;}
.cls-27 {fill:#F39669;}
.cls-28 {fill:#1B666F;}
.cls-29 {fill:none;stroke:#77BFBB;stroke-width:0.5375;stroke-linecap:round;stroke-miterlimit:10;}
.cls-30 {fill:none;stroke:#9CB0B4;stroke-width:0.5375;stroke-linecap:round;stroke-linejoin:round;stroke-miterlimit:10;}
.cls-31 {fill:none;stroke:#0A1833;stroke-width:0.4413;stroke-linecap:round;stroke-miterlimit:10;}
.cls-32 {fill:#B6452F;}
.cls-33 {fill:none;stroke:#77BFBB;stroke-width:0.5;stroke-linecap:round;stroke-miterlimit:10;}
.cls-34 {fill:none;stroke:#AC4132;stroke-width:0.4;stroke-linecap:round;stroke-miterlimit:10;}
.cls-35 {fill:none;stroke:#AC4132;stroke-width:0.4184;stroke-linecap:round;stroke-miterlimit:10;}
.cls-36 {fill:none;stroke:#AC4132;stroke-width:0.443;stroke-linecap:round;stroke-miterlimit:10;}
.cls-37 {fill:none;stroke:#0A1833;stroke-width:0.4;stroke-linecap:round;stroke-miterlimit:10;}
.cls-38 {fill:none;stroke:#D16047;stroke-width:0.3463;stroke-linecap:round;stroke-linejoin:round;stroke-miterlimit:10;}
.cls-39 {fill:none;stroke:#752C28;stroke-width:0.4;stroke-linecap:round;stroke-miterlimit:10;}
.cls-40 {fill:#F69468;}
.cls-41 {fill:none;stroke:#FFFFEC;stroke-width:0.2523;stroke-linecap:round;stroke-miterlimit:10;}
.cls-42 {fill:none;stroke:#863324;stroke-width:0.4187;stroke-linecap:round;stroke-miterlimit:10;}
.cls-43 {fill:none;stroke:#131C35;stroke-width:0.357;stroke-miterlimit:10;}
.cls-44 {fill:none;stroke:#9CB0B4;stroke-width:0.5;stroke-linecap:square;stroke-linejoin:bevel;stroke-miterlimit:10;}</style>
  <path class="cls-1" d="m162 55.7c0 2.1-8.8 3.8-19.5 3.8l-126.2-0.3c-6.9 0-12.5-1.6-12.5-3.5s5.6-3.5 12.5-3.5h126.2c10.6 0 19.6 1.3 19.5 3.5z"/>
  <polygon class="cls-2" points="22.5 25.5 22.5 40.8 41.5 38.4 49.5 36.9 48.9 22.5"/>
  <polygon class="cls-3" points="23.8 25.5 23.8 38.8 47.6 36.8 47.2 22.4"/>
  <polygon class="cls-4" points="111.7 21.4 111.7 36.6 143.4 39 143.4 24.1"/>
  <polygon class="cls-5" points="111.7 21.4 119.8 20 154.8 22.8 154.7 23.6 143.4 25.4 143.4 39 141.8 38.9 143.4 25.4"/>
  <polyline class="cls-8" points="113.3 23.3 141.7 26.5 141.6 37.2 113.3 35 113.3 23.3"/>
  <polygon class="cls-8" points="131.2 30.6 141.6 31.9 141.6 36.4 131.1 35.6"/>
  <path class="cls-9" d="m145.4 48 9.7-1.8c1.7-0.3 3.1-1.6 3.5-3.3 0.8-3.2 1.9-9.9 2.2-13.6 0.4-5.5-3.5-6-8.4-6.2-5.6-0.1-6.4 1.8-7 4.9l-3.3 12.9-0.7 5.7 4 1.4z"/>
  <path class="cls-10" d="m144.1 45.7 10-1.7c1.4-0.2 2.2-0.9 2.6-3.1 0.7-3.3 1.8-9 2-11.9 0.3-4.7-3.1-5.5-7.3-5.9-4.4-0.3-4.8 1.8-5.7 2.9l-4.3 14.9v3.7l2.7 1.1z"/>
  <path class="cls-5" d="m153.8 46.4 2.2 9.7c0.2 0.8 1.8 1.1 1.8-0.3l-1.9-9.9-2.1 0.5z"/>
  <path class="cls-4" d="m135.5 46-1.7 7.2 1.5 0.7 2.6-8.3s-1.3-0.2-2.4 0.4z"/>
  <path class="cls-9" d="m132.9 42.9c0.3-2.7 7.9-2.5 9.8-2.2v2.3c-0.1 1.1 0.2 2.9-3.9 3.1-4.3 0.4-6-1.2-5.9-3.2z"/>
  <path class="cls-10" d="m132.9 42.9c1.8 1.5 7 2 9.8 0.5l0.2 1.9c-3.4 2.5-10.5 2.4-10-0.8v-1.6z"/>
  <path class="cls-9" d="m134.1 16.5c0-0.4 4.9-0.8 4.9-0.8l7.8 1v2.2l-3.8 1.1-8.6-1-0.3-2.5z"/>
  <path class="cls-6" d="m134.2 16.6 0.1 2.1 8.5 1.4 4.5-1.2v-2.2l-4.4 1.1-8.5-1.2"/>
  <path class="cls-9" d="m134.1 19c-0.2-0.1-0.3 1.8-0.3 1.8l9.2 0.8 4.7-1.2-0.1-1.4-0.6-0.3-4.2 1.1-8.6-0.9"/>
  <path class="cls-10" d="m133.8 20.7 9 0.9 4.8-0.7 0.1 1.5c0 0.1-4.8 1.2-4.8 1.2l-9.1-1.1-0.2-0.4 0.2-1.4z"/>
  <polygon class="cls-6" points="120 11.1 123.5 10.6 132.4 11.6 132.3 21.8 128.4 22.5 120 21.1"/>
  <polygon class="cls-17" points="128.6 12.4 132.4 11.6 132.4 21.8 128.4 22.5"/>
  <polygon class="cls-12" points="121.3 11.2 123.6 11 130.5 11.8 128.6 12.1"/>
  <polygon class="cls-16" points="10.7 22.9 10.6 23.9 22.8 25.7 41.6 23.6 46.5 21.1 41.9 20.1"/>
  <polygon class="cls-15" points="10.7 22.9 22.8 21.6 41.9 20.1 46.5 21.1 22.8 25.4"/>
  <polygon class="cls-5" points="22.6 37.6 22.5 40.8 44.4 37.9 44.5 35.4"/>
  <polygon class="cls-6" points="28 33.1 27.9 38.1 35.4 37 35.5 29.8 31.8 29 27.5 29.8"/>
  <polygon class="cls-17" points="34.8 31.9 35.5 31.9 35.4 37 34.9 36.9"/>
  <polygon class="cls-2" points="35.2 32.2 35.2 36.3 36.9 36.2 37.1 32.4 36.1 32"/>
  <polygon class="cls-3" points="34.6 36.2 42.7 35.6 42.7 33.5 45 33.7 45 35.4 43.5 36.6 35 37"/>
  <polygon class="cls-3" points="36 28.9 39.5 28.4 43.6 29.4 43.6 31.2 39.4 32 39.4 36.1 36.1 35.9"/>
  <polygon class="cls-5" points="39.5 32 39.5 36.1 43.6 35.5 43.6 31.2"/>
  <polygon class="cls-3" points="23.9 27.4 26.5 27.1 31.3 28.1 31.3 30.4 24.2 31"/>
  <polygon class="cls-10" points="24.1 27.9 24.1 29.7 31.3 28.9 31.3 28.1"/>
  <path class="cls-9" d="m21.5 31c-1-3.3-1.5-8.1-6.4-7.8-6.3 0.2-10.1 0.8-10.2 5.5 0 2.9 1.1 10 2 13.8 0.5 2.6 2.6 4 4.8 4.2l7.8-0.7 3.7-1.6-1.7-13.4z"/>
  <path class="cls-10" d="m12.7 23.6c-3 0.4-5.9 1.9-5.7 5.8 0.1 2.6 1.3 10 2 12.6 0.6 2.6 3.1 2.2 5.2 2.6l1.3 1.9c-4.8 0.7-7.9-0.2-8.6-4-0.9-3.8-2-10.8-2-13.8 0.1-4.7 3-5.3 8-5.6l-0.2 0.5z"/>
  <path class="cls-4" d="m9.5 45.9c-0.5 2.6-1.8 10.1-1.7 10.4 0.5 0.9 1.7 0.7 1.8 0.2l1.7-9.8-1.8-0.8z"/>
  <polygon class="cls-3" points="20.1 13.5 20.1 22.5 25.4 24.1 29.1 23.7 29.6 15.1 27.5 13.9 23.5 13.2 21.9 13.6"/>
  <path class="cls-14" d="m21.4 13.6 4.8 0.9-0.3 0.6-5.1-1.4c0.3 0 0.6-0.1 0.6-0.1z"/>
  <path class="cls-6" d="m39.5 14.1 1.9-0.1v8s-1.5 0.4-1.9 0v-7.9z"/>
  <polygon class="cls-9" points="37.3 13.7 37.4 22.2 38.5 22.5 39.5 22.1 39.5 14.1 38.9 13.6"/>
  <polygon class="cls-14" points="37.3 13.1 39.2 13.2 41.4 14 40.4 14.1 38.2 13.4"/>
  <polygon class="cls-3" points="27.8 12 32.6 13.1 32.6 22.9 34.6 23.1 37.1 22.6 37.1 13.4 34.6 13.1 30 11.7"/>
  <polygon class="cls-5" points="34.5 13.4 34.6 23 37 22.6 37.1 13.6"/>
  <path class="cls-14" d="m28.7 12 3.3 0.5 2.9 0.7-0.5 0.2-5.9-1.3 0.2-0.1zm6.8 1.4 1 0.1 0.6 0.2-0.8 0.1-0.8-0.3z"/>
  <polygon class="cls-10" points="23.6 13.1 27.5 14.1 27.5 23.6 29.4 23.7 31.8 23.4 31.8 13.7 29.6 13.5 25.3 12.5"/>
  <polygon class="cls-9" points="29.6 14.1 29.8 23.6 31.8 23.4 31.8 13.7"/>
  <path class="cls-14" d="m25.1 12.7 4.4 1.2-0.9 0.2-4.1-1.2 0.6-0.2zm4.8 1.2 0.8 0.2-0.6 0.1-0.6-0.1h0.4z"/>
  <path class="cls-6" d="m81.7 51c-37.5 0-78.8 8.9-78.9 33.9 0 16 22.2 26.5 41.4 32.3 13.6 4 33.8 4.6 37.6 4.6v-70.8z"/>
  <path class="cls-9" d="m81.8 121.8c12.7 0 40.4-1.1 60.9-11.7l-20.3-8.8-1.4-20.1-42.4-16.3c-17.5 0.6-75.9 5.9-75.3 24.7l18.3-2.7-1.3-20.9c-11.8 4.9-17.5 12.2-17.5 18.9 0 11.2 10.2 22 33.1 29 9.7 3 22.5 7.7 45.9 7.9z"/>
  <path class="cls-5" d="m81.8 121.8c24.2 0 44.8-2.8 63.5-13.4l-23.9-9.8 0.2-17.5 41.7 3c0.3 10-7.1 17.4-17 23.5-14.9 9.2-38.8 14.2-64.5 14.2z"/>
  <path class="cls-17" d="m152.1 68.3-0.6-5.1-9 1.8c0.3 0.9 0.5 8.9 0.5 8.9l20.3 10.2c-0.1-5.5-3.7-11.6-11.2-15.8z"/>
  <path class="cls-6" d="m81.6 51v13.9l7.6 0.5 16.9-3.8-0.6-8.6-17.3-1.5z"/>
  <path class="cls-5" d="m81.7 59.9v5l7.8 0.6 16.2-3.7-0.1-8.4-17.5-0.3-6.4 2.4v4.4z"/>
  <path class="cls-25" d="m78.4 65c10.4-0.2 19.4 1.1 27.3 2.9l15.9 13.3-20.9 10.3c-5.3 1.5-13.3 5.1-30 5.1l-15.3-27.7c4.2-2 13.2-3.6 23-3.9z"/>
  <path class="cls-6" d="m81.8 82.4v11.5c10.6 0 17.4-1.7 20.2-2.4l7.5-11.3-31-15.2c-9.6 0.3-17.5 1.6-22.1 3.4l-5 8.6 9.1 6.4 21.3-1z"/>
  <ellipse class="cls-17" cx="81.8" cy="79" rx="7.6" ry="3.5"/>
  <ellipse class="cls-5" cx="81.8" cy="78.9" rx="4.4" ry="1.7"/>
  <path class="cls-17" d="m29.1 69.4c-6.2 1-18.6 0.6-18.6 3.2 0 4 9.4 4.5 22.9 4l10.5-1v-4.9c-2.4-1.1-8.7-2.2-14.8-1.3z"/>
  <g fill="#EF8D2E" stroke="#EF8D2E" stroke-width=".5">
    <path transform="translate(30 81)" d="m15.9 16.6c-7 1.6-29 4.4-31-1.7-0.8-2.6 4.4-4.4 8-5l24.8-2.5s3.9 7.6-1.8 9.2z"/>
    <path transform="translate(80 96)" d="m16.8 11-9 0.4c-2.1 1 0.7 2 3.4 3l8.8 3.1c3.9 1.4 9.7 2.7 15.2 2.7 7.8 0 13.7-1.6 13.9-4.2 0.3-4.4-18.6-6-32.3-5z"/>
  </g>
  <style type="text/css">.cls-45 {fill:#F59D73;}
.cls-46 {fill:none;stroke:#BD5338;stroke-width:0.45;stroke-linecap:round;stroke-linejoin:round;stroke-miterlimit:10;}
.cls-47 {fill:none;stroke:#6E2919;stroke-width:0.45;stroke-linecap:round;stroke-linejoin:round;stroke-miterlimit:10;}
.cls-48 {fill:#FFFFFF;}
.cls-49 {fill:none;stroke:#6E2919;stroke-width:0.4472;stroke-linecap:round;stroke-miterlimit:10;}
.cls-50 {fill:none;stroke:#863324;stroke-width:0.4;stroke-linecap:round;stroke-miterlimit:10;}
.cls-51 {fill:#BF4C37;}</style>
  <path d="m21.9 46.8c-3 1.3-5.3 3.2-6.5 11.2l9.8 1.6 6-7.7c-0.7-2.5-3.3-5.5-5.7-5.7z" fill="#75BAB8"/>
  <path d="m17.9 33.9c-3.1-0.8-5 1.3-4.7 4.6-1.1 2.1-2.2 2.1-0.7 5.5 1 1.5-1.9 4.1-1.5 6.5 0.4 3.4 4 5 6 3.9l6.5-8.9-1.6-5.5z" fill="#B5402F"/>
  <path d="m17.2 37.1c-0.3 1.4 0 4.4 0.4 5.5 1.2 2-1.7 4-1.1 6.5l0.6 2.9 6-6.5-1-6.5z" fill="#711D1A"/>
  <path d="m21.2 31.1c2.8-1.2 10-0.9 10.7 2.5 1 3.3-2.7 6.4-5.8 6.4l-4.2 0.1-4.3-3.1c-0.1-2.9 1.8-5.2 3.6-5.9z" fill="#B5402F"/>
  <path d="m22.4 42.5-0.2 4.4c1.2 2 4.3 3.7 5 1.6v-2.1c2-0.4 4.7 0.1 5.2-2.4 0.5-1.6-1-5-1-5l-3-6.4c-1.6 3.9-5.4 5.9-5.4 5.9l-0.6 1.1-1.8-0.2-0.6 1c-0.4 2.2 2.4 3.6 2.4 2.1z" fill="#F49C73"/>
  <path d="m24.2 45.2c0.8 0.7 1.9 0.9 2.9 0.9v0.9c-0.9-0.1-2.9-0.6-2.9-1.8z" fill="#B5402F"/>
  <path d="m17.5 37.1c-1.1 0-1-3 0.4-3.2 0 0 0.5 0 0.2 0.5-0.9 1.6-0.4 2.8-0.6 2.7z" fill="#FAAF32"/>
  <path d="m28 37" fill="none" stroke="#421410" stroke-linecap="round" stroke-miterlimit="10" stroke-width=".5204"/>
  <circle cx="25.7" cy="41.7" r="1.1" fill="#ED795A"/>
  <circle cx="31.4" cy="40.6" r=".7" fill="#DD654A"/>
  <path d="m25.4 37.6c0.2-0.5 1-0.7 1.5-0.6" fill="none" stroke="#421410" stroke-linecap="round" stroke-miterlimit="10" stroke-width=".5204"/>
  <path d="m29.8 36.5c0.4-0.3 0.8-0.3 1.3-0.1" fill="none" stroke="#421410" stroke-linecap="round" stroke-miterlimit="10" stroke-width=".5204"/>
  <path d="m27.4 42.5h3c-0.2 1.4-2.8 1.9-3 0z" fill="#fff"/>
  <path d="m29 39c0.1 1.4 1.6 1 0.5 2" fill="none" stroke="#A23B24" stroke-linecap="round" stroke-miterlimit="10" stroke-width=".4413"/>
  <ellipse cx="27" cy="39.2" rx=".6" ry=".8" fill="#0A1833"/>
  <ellipse cx="30.9" cy="38.5" rx=".5" ry=".7" fill="#0A1833"/>
  <path d="m74.5 23.1-3.3-4.2c-1.2-1.3-2 0-0.1 1.7-1.3 0.5-1 1.8 0.1 2.3l-0.5 1.1 2.4 1 3.4 4c1.5 1.7 2.3 2.1 3.5 1.7l2.5-0.7-1.7-3.4-5.7-3.5" fill="#F59D73"/>
  <path d="m80.5 26.5-5.4-3.5c0.7 1-0.9 1.4-2.1 1.9l3.5 4.1c1.7 2 2.6 2.1 4 1.6l1.5-0.2z" fill="#CE6C45"/>
  :initComponents_Arrow_InformationSVGADA_2aa_2199__SVG岱她说右eon6_0红楼梦MDL&quot;/&gt;
  <path d="m70.1 22c-1.6 0.4 0.3 2.5 0.8 2 1.1-0.6 0.9-1.4-0.8-2z" fill="#CE6C45"/>
  <path d="m70 22.9c0.4 0.5 1.1 1 1.4 0.7" fill="none" stroke="#943426" stroke-linecap="round" stroke-miterlimit="10" stroke-width=".3207"/>
  <path d="m71.4 21.2c0.7 0.4 1.5 0.2 2.2 0.4" fill="none" stroke="#792A24" stroke-linecap="round" stroke-linejoin="round" stroke-miterlimit="10" stroke-width=".3463"/>
  <path d="m71.4 21.4c-0.8 1.1 0.2 1.5 1 1.6" fill="none" stroke="#792A24" stroke-linecap="round" stroke-linejoin="round" stroke-miterlimit="10" stroke-width=".3463"/>
  <path d="m71.5 23c0.1-0.1 0.5-0.4 1.3-0.1" fill="none" stroke="#792A24" stroke-linecap="round" stroke-linejoin="round" stroke-miterlimit="10" stroke-width=".3463"/>
  <path d="m80.5 25.6 5.3-2.2 6.8-0.5c2.5 0.2 5.4 1 8.5 6.6l-2.9 1.9-0.2 6.7-14.4-0.6-1.5-7z" fill="#FCBF32"/>
  <path d="m88.6 22.4-0.1 1.4c0.1 2.1 4 2.1 4.9-0.9l0.1-2.9z" fill="#CE6C45"/>
  <path d="m84.6 11.6c-0.4 0.8 0.5 4.4 1 4.8l10.9 0.5c1.5-2.3 2-6.3-0.5-8-3.1-2.4-6.1-2.3-8.4-1.9-2.7 0.5-4 2.5-4.1 2.8l1.1 0.2-1.5 1c1.1 1.9 4.3 2.5 10.1 0.5-0.3 1.9 0.4 4 1.3 5.5l2-0.1c0.7-0.7 2.6-5.9-0.9-8-2.1-1.5-4.1-2.3-7.2-1.9-3.5 0.4-4.8 2.6-4.9 2.9l1.1 0.1-1.5 1z" fill="#0A1833"/>
  <path d="m85.4 12.6c-1.2 5.3-1.4 8.9 3.1 9.9 1.9 0.4 4-0.1 6-2.9 0.6 0.3 2.3 0.6 2.6-1.2 0.4-1.8-1.7-2.5-2.6-1.4-1.1-1.9-1.6-4.1-1.3-5.5-2.8 1.1-5.7 1.9-7.8 1.1z" fill="#CE6C45"/>
  <path d="m87.8 16.6c-0.3 0.9-0.8 0.9-0.4 1.6h0.5" fill="none" stroke="#943426" stroke-linecap="round" stroke-miterlimit="10" stroke-width=".4413"/>
  <path d="m85.6 14.2c0-0.6 1-0.8 1.6-0.6v0.4c-0.3 0-1.4 0-1.6 0.2z" fill="#0A1833"/>
  <path d="m90.1 14c0.9-0.6 2 0.1 1.8 0.6-0.7 0-0.9-0.5-1.8-0.4z" fill="#0A1833"/>
  <path d="m86.9 19.5 3.2-0.1c-0.3 2-2.3 2.1-3.2 0.1z" fill="#fff"/>
  <path d="m94.9 18.9c0.1-1.4 1.1-1.5 1.6-1.3" fill="none" stroke="#943426" stroke-linecap="round" stroke-linejoin="round" stroke-miterlimit="10" stroke-width=".4072"/>
  <ellipse cx="85.6" cy="17.9" rx=".9" ry=".8" fill="#B7452C"/>
  <ellipse cx="91.6" cy="18.6" rx="1" ry=".9" fill="#B7452C"/>
  <ellipse cx="86.2" cy="15.9" rx=".6" ry=".8" fill="#0A1833"/>
  <ellipse cx="90.4" cy="16.4" rx=".6" ry=".8" fill="#0A1833"/>
  <ellipse cx="86.5" cy="15.6" rx=".2" ry=".2" fill="#fff"/>
  <ellipse cx="90.6" cy="16.1" rx=".2" ry=".2" fill="#fff"/>
  <path d="m88.5 22.9c0.7 0 2 0 3-0.9" fill="none" stroke="#943426" stroke-linecap="round" stroke-linejoin="round" stroke-miterlimit="10" stroke-width=".4072"/>
  <path d="m86.5 28-0.9 4c-0.2 2.1 4.2 2.1 4.6-1.4 0.4-3-3.2-4.2-3.7-2.6z" fill="#278E91"/>
  <path d="m90.4 28.5v3c0.1 1.4 2.6 1.4 2.8-0.5l0.3-2.1c0.1-1.9-2.9-2-3.1-0.4z" fill="#CE6C45"/>
  <path d="m84.9 29.9 0.1-2.5" fill="none" stroke="#B35631" stroke-linecap="round" stroke-linejoin="round" stroke-miterlimit="10" stroke-width=".4205"/>
  <polyline points="94.5 28.1 95.8 31.5" fill="none" stroke="#B35631" stroke-linecap="round" stroke-linejoin="round" stroke-miterlimit="10" stroke-width=".4205"/>
  <path d="m75.6 35.2-0.2 17.8-2.5 1c0-7.4 0.5-9.8 2.5-10" fill="none" stroke="#8C9A9F" stroke-linecap="square" stroke-linejoin="bevel" stroke-miterlimit="10"/>
  <path d="m74.6 34.4c0-0.8 0.9-0.8 1.8-0.9l7.8-1.1-0.2 1.7-8.5 1.4c-0.9 0-0.9-0.3-0.9-1.1z" fill="#0A1833"/>
  <path d="m98.5 36.5 0.1 3.1 1.8-0.2-0.3-3.2z" fill="#0a1833"/>
  <path d="m93.9 22.9 6.5 0.5 0.6 6.5-0.9-0.5c-0.7-2.4-2.1-5.5-6.2-6.5z" fill="#0a1833"/>
  <path d="m83.1 47-3.5 1c-0.1-3.5 2.4-2.4 3.5-1.6z" fill="#fff"/>
  <path d="m73.4 45.4c1.2-6.5 6.5-11.4 10.7-9.5l-0.1 1.1c-4.4-0.9-8 1.5-8.6 7z" fill="#0A1833"/>
  <path d="m85 43.5-4 0.4-0.5 3.2 2.6-0.2" fill="none" stroke="#0a1833" stroke-linecap="square" stroke-linejoin="bevel" stroke-miterlimit="10"/>
  <path d="m89.2 46 0.9-2 10.3-1.6v2.1z" fill="#0A1833"/>
  <path d="m90.1 35.9 11.3-1.5c0.6 0 0.8 1.5 0 1.7l-11.2 1.5z" fill="#0a1833"/>
  <path d="m75 53.1c0-2.9 0.6-12.7 2-14.6 1.1-1.1 8.1-2.4 13.5-1.1l7.5 0.6c-1.1 1.5-3.1 5.1-3.4 6.6l-5.5-0.2-1.5 9.5-5.2 0.7 0.1-6.1-2 1.6-0.5 3.4z" fill="#26757A"/>
  <path d="m91.6 37.6c-0.1 3.5 0 8.3 0 8.3l2.9-0.5" fill="none" stroke="#B3BDC1" stroke-linejoin="bevel" stroke-miterlimit="10" stroke-width=".9"/>
  <path d="m89.5 59.1c-0.5-7.5-0.5-11.1 0.5-12.6 1.1-1.1 2.5-0.9 3.5-1" fill="none" stroke="#B3BDC1" stroke-linejoin="bevel" stroke-miterlimit="10"/>
  <path d="m102 20.4 3.6-0.5c1.3-0.3 1.3 1.7 0.3 1.7l-3.3 0.3z" fill="#0A1833"/>
  <path d="m100.1 29.5 1 0.5 0.4-7.1 0.5-1 0.6-0.3c0.4-0.1 0-1.5-0.6-1.2-1 0.7-1.8 0.6-1.8 3.2z" fill="#B3BDC1"/>
  <ellipse cx="100" cy="49.9" rx="7" ry="12.6" fill="#0A1833"/>
  <ellipse cx="101.2" cy="49.9" rx="5.6" ry="11.1" fill="#B5BDBC"/>
  <ellipse cx="101.1" cy="50" rx="5" ry="10.4" fill="#0A1833"/>
  <path d="m101.1 40.4v19.7" fill="none" stroke="#B3BDC1" stroke-miterlimit="10" stroke-width=".6"/>
  <path d="m96.9 44.5 8 11.6" fill="none" stroke="#B3BDC1" stroke-miterlimit="10" stroke-width=".6"/>
  <path d="m95.1 49.6h10.8" fill="none" stroke="#B3BDC1" stroke-miterlimit="10" stroke-width=".6"/>
  <path d="m95.5 53 9-10.5" fill="none" stroke="#B3BDC1" stroke-miterlimit="10" stroke-width=".6"/>
  <path d="m74.6 54c-1.4-1-3.4 0.9-4 2l4 1.6z" fill="#fff"/>
  <path d="m79.5 57 0.6-2.1 3.3-0.8 3.5-0.1-0.5 4.1-6.4 0.9z" fill="#fff"/>
  <path d="m75.4 52.6v1.5l2 0.3 2.2 0.1-0.1-1.5z" fill="#CE6C45"/>
  <path d="m83 54 0.5-0.5 3.4 0.5-0.3 3h-4.2z" fill="#CE6C45"/>
  <path d="m75.4 53.9-3.5 1.6c1.1 0.1 2.6 1 2.7 2.4l5.4-0.5 0.1-3.4c-1.5 0.5-3 0.6-3.6-0.6z" fill="#D66641"/>
  <path d="m83 54.2c-0.4 0.4-2.4 2.3-3.6 2.7-0.3 0.5-1 2.1-0.3 2.5 1.5 0.6 5.9 0 8-0.8v-3.2c-1.6 0.7-2.6-1.3-4.1-1.2z" fill="#D66641"/>
  <path d="m73.4 54.9c0.7 0 1.2 0.1 1.6 0.5" fill="none" stroke="#fff" stroke-linecap="round" stroke-miterlimit="10" stroke-width=".3"/>
  <path d="m74.4 54.5c0.6 0 1 0.1 1.5 0.5" fill="none" stroke="#fff" stroke-linecap="round" stroke-miterlimit="10" stroke-width=".3"/>
  <path d="m75.4 54c0.7-0.1 1.1 0.1 1.6 0.5" fill="none" stroke="#fff" stroke-linecap="round" stroke-miterlimit="10" stroke-width=".3"/>
  <path d="m80.9 56.1c0.6-0.1 1.6 0.4 1.7 0.9" fill="none" stroke="#fff" stroke-linecap="round" stroke-miterlimit="10" stroke-width=".3"/>
  <path d="m81.6 55.6c0.8 0 1.4 0.4 1.5 0.5" fill="none" stroke="#fff" stroke-linecap="round" stroke-miterlimit="10" stroke-width=".3"/>
  <path d="m82.4 55.4c0.7 0 1.5 0.2 1.6 0.6" fill="none" stroke="#fff" stroke-linecap="round" stroke-miterlimit="10" stroke-width=".3"/>
  <path d="m82.9 55c0.6 0 1.2 0.1 1.5 0.5" fill="none" stroke="#fff" stroke-linecap="round" stroke-miterlimit="10" stroke-width=".3"/>
  <path d="m71.5 55c-2.1 1.1-2.1 7.4 1.1 7.1 2.4-0.1 3-3.7 2.9-3.7z" fill="#0A1833"/>
  <path d="m72.2 58.5c0.3 2.1 2.2 2.1 2.3 0.4z" fill="#869EA5"/>
  <polyline points="86.9 59 86.9 58.5 86.9 59.9" fill="none" stroke="#B3BDC1" stroke-linecap="square" stroke-linejoin="bevel" stroke-miterlimit="10" stroke-width=".9"/>
  <path d="m70.6 58 16.8 0.9-1.4 2-14.4-2z" fill="#0A1833"/>
  <ellipse cx="90.5" cy="61" rx="2.6" ry="3.9" fill="#0A1833"/>
  <path d="m86.9 58.4c0.5-1.9 0.5-2.8 2.6-3 0 0 1.4 0.5 1.6 1v3.5" fill="none" stroke="#B3BDC1" stroke-linecap="square" stroke-linejoin="bevel" stroke-miterlimit="10" stroke-width="1.2"/>
  <ellipse cx="91.1" cy="61.5" rx=".9" ry="1.9" fill="#869EA5"/>
  <ellipse cx="91.1" cy="61.5" rx=".4" ry=".6" fill="#0A1833"/>
  <path d="m90.1 51 3.3-0.5" fill="none" stroke="#B3BDC1" stroke-miterlimit="10" stroke-width=".6"/>
  <path d="m82.2 46.9" fill="#26757A"/>
  <path d="m87.4 38.1c-3.8 1.3-4.3 1.4-4.5 6" fill="none" stroke="#0E3647" stroke-miterlimit="10" stroke-width=".4"/>
  <ellipse cx="101.2" cy="50.1" rx="1.1" ry="1.6" fill="#0A1833"/>
  <path d="m64.2 35-2.8 4-3.5 3.9c2.6 2 4.1 4 6 1.5 1.6-2.4 3.5-7.8 3.5-7.8 0.6-0.1 2.8-3.6 2.8-4.6-0.2-0.6-3.1-2-4.2-1.5z" fill="#CE6C45"/>
  <path d="m64.2 35c-0.3-1 0.2-2.9-0.1-4.4 0.9-0.7 1.4 1.5 1.4 1.9l1.6 0.6-0.1 2-2.4 1.9z" fill="#F59D73"/>
  <path d="m65.6 32.5c0.4 0.6 0.8 1.5 0.5 2" fill="none" stroke="#B55536" stroke-linecap="round" stroke-miterlimit="10" stroke-width=".3472"/>
  <path d="m66.4 32.4 1.2-1.9c0.9-2 1.8-0.4 1.1-0.1 0.4-0.8 1.4-0.9 0.7 0.5 1-0.8 0.8 1.1 0.2 1.1l0.5-0.1" fill="#EE976E"/>
  <path d="m69.5 30.5-1.5 2.1" fill="none" stroke="#B55536" stroke-linecap="round" stroke-linejoin="round" stroke-miterlimit="10" stroke-width=".3084"/>
  <path d="m68.9 30-1.4 2.1" fill="none" stroke="#B55536" stroke-linecap="round" stroke-linejoin="round" stroke-miterlimit="10" stroke-width=".3305"/>
  <path d="m69.6 32.4-1.1 1.1" fill="none" stroke="#B55536" stroke-linecap="round" stroke-linejoin="round" stroke-miterlimit="10" stroke-width=".3769"/>
  <path d="m48 33c-1.1 0-3.9 1.9-4.9 3.4-1.2 2.1-1.9 6.5-2.2 18l16.5-0.9-0.4-10.9 0.5 0.8c0.9-0.5 3.7-3.9 3.7-4.3v-0.2c-2.7-2.9-5.1-5.8-8-5.8z" fill="#268186"/>
  <path d="m41.9 43.9c-0.5 4.1-0.3 6.1 1.2 6.6l3 0.9 8.1 1.6 1.8-1.9-0.1-1.7-3.3-0.5-6.5-2.3 0.3-2.2z" fill="#F59D73"/>
  <polygon points="48.2 39.4 55.5 38.9 55.9 46.5 48.5 47" fill="#FCBE32"/>
  <path d="m55.8 49c3.4-0.5 9.6-3.4 11.6-1 2.5 2.9 0.2 6.4-3.2 7.4l-4.2 4-11-2.4" fill="#CE633E"/>
  <path d="m46.2 50.6 4.8 0.4 4.9 1.6 1.1 1.4-6.1 3.6c-4.7 2-9 1.5-9.3-3.1 0.3-1.9 3-3.5 4.6-3.9z" fill="#F59D73"/>
  <path d="m45.6 56.6 14.4 3.5 1.6-4.5-5.5-2-7-3c-4.2-1.1-7.2 2.5-7.5 3.8 0.3 4.6 3.8 5.7 7.3 5" fill="#CE633E"/>
  <path d="m58.5 51.6 3.9-2.1" fill="none" stroke="#0A1833" stroke-linecap="round" stroke-miterlimit="10" stroke-width=".4"/>
  <path d="m61.6 55.9c0.8-0.3 6-1.4 7.5 0.2 1.8 1.5 0.5 4.9-1.7 4.4l-6-1.4z" fill="#fff"/>
  <path d="m61.5 56 0.6 3.6c1.1 0.4 4.3 1 5.4 0.9-1.5-1.9-0.1-4.5 0.7-4.5-2.1-0.9-5.2-1.6-6.7 0z" fill="#279294"/>
  <path d="m63.5 56.6c-0.4 1-0.3 1.5-0.1 2.3" fill="none" stroke="#7BC0BA" stroke-linecap="round" stroke-miterlimit="10" stroke-width=".5"/>
  <path d="m64.4 56.6c-0.3 0.9-0.3 1.5 0 2.3" fill="none" stroke="#7BC0BA" stroke-linecap="round" stroke-miterlimit="10" stroke-width=".5"/>
  <path d="m65.4 57c-0.2 0.5-0.3 1.1 0.1 1.9" fill="none" stroke="#7BC0BA" stroke-linecap="round" stroke-miterlimit="10" stroke-width=".5"/>
  <path d="m55.8 49.9 1.3-0.3c1.3 0.5 2.3 2.3 1.9 2.8l-1.4 1.6-1.6-0.5-3.5-1.6" fill="#F59D73"/>
  <path d="m55.9 51.5c0.5 0 1.6 0.5 2.1 2" fill="none" stroke="#B55536" stroke-linecap="round" stroke-miterlimit="10" stroke-width=".3208"/>
  <path d="m55.9 50.9c1 0.1 2.3 1.1 2.7 2.2" fill="none" stroke="#B55536" stroke-linecap="round" stroke-miterlimit="10" stroke-width=".327"/>
  <path d="m56.4 50.4c1.1 0.1 2.2 1 2.7 2.1" fill="none" stroke="#B55536" stroke-linecap="round" stroke-miterlimit="10" stroke-width=".3323"/>
  <path d="m51.6 51.6 9.6 3.4" fill="none" stroke="#0A1833" stroke-linecap="round" stroke-miterlimit="10" stroke-width=".4081"/>
  <path d="m48.2 30.4-0.1 2.7c0.9 2.4 5 3.8 5.3 0.3l-0.3-0.3c2.7 0.3 5.5-2.2 4.8-5.7l-0.5-4.5-6.8-2c-2.1 1.1-3.1 1.2-4.7 4.1-1.5 2.9-0.7 5.9 2.3 5.4z" fill="#F59D73"/>
  <path d="m45 27.5c-1.9-2.6-2-4.5-0.3-5.4-0.3-1.4 0.5-2.5 2.2-2.5 0.8-1.5 2.2-2.5 4.5-1.2 1.7 0 2-1.5 4.1-0.8 1.1 0.4 1.4 1.4 1.2 2.3 2.2 0 2.9 2.6 0.9 3.2l-0.2 2.4c-0.3-0.1-0.3-2.1-0.5-2.4-1.4 0.3-2.7-0.6-3.5-1-1 1-1 1.5-2.5 0.9l-1.3 0.4-0.2 0.5 0.2 1.1-1.4 1.2 0.2 1.4h-0.4l-0.8-0.7c-1-0.4-2.6 0-2.2 0.6z" fill="#0A1832"/>
  <path d="m45.9 27.4c-1.7 0.7-0.9 3.5 1.5 2.7l0.5-0.1c0.1-1.1-0.3-2.9-2-2.6z" fill="#F6976E"/>
  <path d="m46.2 28c0.8 0 1.2 0.4 1.2 1" fill="none" stroke="#A84531" stroke-linecap="round" stroke-miterlimit="10" stroke-width=".4"/>
  <path d="m50.2 32.1c0.7 0.5 1.7 0.9 2.9 1" fill="none" stroke="#853224" stroke-linecap="round" stroke-miterlimit="10" stroke-width=".5"/>
  <path d="m52.6 28.9c0 0.6-0.5 1.1-1.2 1.1-0.8 0-1.4-0.5-1.4-1.1 0-0.7 0.5-1 1.2-1s1.4 0.5 1.4 1z" fill="#CE5F36" style=""/>
  <path d="m56.1 28.1c0-0.5 0.5-1 1.3-0.7 0.8 0 0.6 1.6 0.6 1.6-0.1 0.6-1.9 0.4-1.9-0.4z" fill="#CE5F36" style=""/>
  <path d="m52.6 29.4 3.5 0.1c-0.3 2-3.2 2.1-3.5-0.1z" fill="#993224" style=""/>
  <path d="m52.6 29.4c1 0.2 2.8 0.2 3.4 0.2" fill="none" stroke="#EFDACE" stroke-width=".4"/>
  <path d="m54.6 26.5c-0.2 1.4 1.6 1.1 0.4 1.9" fill="none" stroke="#742B23" stroke-linecap="round" stroke-miterlimit="10" stroke-width=".3643"/>
  <path d="m51.1 25.5c0.3-0.5 1-0.4 1.3-0.5v-0.4c-0.5-0.4-1.9 0-2 0.8l0.2 0.2z" fill="#0A1835"/>
  <path d="m55.1 24.6 0.3-0.4c0.6-0.3 1.2-0.3 1.7 0.2v0.5l-0.5-0.3z" fill="#091731"/>
  <ellipse cx="52.4" cy="27" rx=".5" ry=".8" fill="#110D1E"/>
  <ellipse cx="56.4" cy="26.5" rx=".5" ry=".8" fill="#110D1E"/>
  <path d="m46.9 44.9 0.5-5.3" fill="none" stroke="#0A1833" stroke-linecap="round" stroke-miterlimit="10" stroke-width=".4"/>
  <line x1="56.5" x2="57.1" y1="38.4" y2="43" fill="none" stroke="#0A1833" stroke-linecap="round" stroke-miterlimit="10" stroke-width=".4"/>
  <ellipse cx="52.1" cy="43" rx="2" ry="1.6" fill="#C35637"/>
  <path d="m94 32.5-3.9 1.5c-1.5 0.5-2.2 2.5-1.6 3.4 0.6 1.6 2.1 1.5 2.6 0.2l2.5-1.7 6.8-0.9c2.1-0.4 1.3-3.5 0.5-5z" clip-rule="evenodd" fill="#CE633E" fill-rule="evenodd"/>
  vill=&quot;url(#GradientStrokeColor) #0E3647&quot;
ue=&quot;none&quot; stroke-linecap=&quot;round&quot; stroke-linejoin=&quot;round&quot; stroke-miterlimit=&quot;10&quot; d=&quot;M 89.1,35.9 C 88.6,36.6 88.6,38 89,38.6&quot;/&gt;
  <path d="m90 36.1c-0.4 0.8-0.4 1.9-0.4 2.5" clip-rule="evenodd" fill="none" fill-rule="evenodd" stroke="#AB442F" stroke-linecap="round" stroke-linejoin="round" stroke-miterlimit="10" stroke-width=".4"/>
  <path d="m90.5 36.4c-0.1 0.6-0.4 1.6-0.1 2.2" clip-rule="evenodd" fill="none" fill-rule="evenodd" stroke="#AB442F" stroke-linecap="round" stroke-linejoin="round" stroke-miterlimit="10" stroke-width=".4"/>
  <path d="m91 36.4c-0.1 0.5-0.5 1.2-0.1 2.2" clip-rule="evenodd" fill="none" fill-rule="evenodd" stroke="#AB442F" stroke-linecap="round" stroke-linejoin="round" stroke-miterlimit="10" stroke-width=".4"/>
  <line x1="97.1" x2="99.1" y1="31.5" y2="31.4" clip-rule="evenodd" fill="none" fill-rule="evenodd" stroke="#AB442F" stroke-linecap="round" stroke-linejoin="round" stroke-miterlimit="10" stroke-width=".4"/>
  <path d="m20.2 40.6c0.9-0.1 1.7 0.4 1.8 1.3" fill="#843125"/>
  12&quot; fill=&quot;none&quot; stroke=&quot;#B55536&quot; stroke-linecap=&quot;round&quot; stroke-width=&quot;0.5&quot; d=&quot;M 20.6,41 C 21.1,40.9 21.7,41.3 21.6,41.9&quot;/&gt;
  <path d="m16 57.9v3.7l4.4-0.5-0.3-2.6z" fill="#CE6C45"/>
</svg>