<svg xmlns="http://www.w3.org/2000/svg" viewBox="0 0 155.9 121.8">
<!-- SVG created with Arrow, by QuiverAI (https://quiver.ai) -->
  <style type="text/css">.cls-0 {fill:#FBF6EB;}
.cls-1 {fill:#B75A34;}
.cls-2 {fill:#141112;}</style>
  <path class="cls-1" d="m143 29c-0.4-1-1.3-1.2-3-1.6-2.6-0.4-8.9-1.5-10.2-1.4-1.9-3.7-6.5-8.4-11.1-10.7-2.8-1.4-5.9-2.5-10.8-2.7-3.4-0.1-12.7 1.7-19.6 8.8l-1.3 1.4c-2.7 3.3-6.9 11.1-9.8 17.1-2.8 5.3-6.8 9.7-8.5 11.5l-0.5 0.7c-3.2 3.4-10.8 10.1-19.2 12.3-5.2 1.2-8.6-0.5-10.1-1-6.4-2.4-10.4-5.5-14.6-7.6-6.2-2.7-10.1-4.4-12.1-1.2-1 1.7 1.7 7.2 5.4 11.7s9.3 10.2 18 14.1c3.3 1.6 5.9 2.3 5.9 2.3 3.5 3.9 8.5 11.3 15.2 15.7 5.3 4 13.7 8.7 24.3 10.2 11.3 1.4 20 0 28-3.4 5.4-2.3 9.3-4.9 14.2-9.6 3.4-3.4 7.1-9.1 8.8-13.8 2.2-6 4.1-12.7 4.1-22.3 0-6.8-0.7-14-2.1-20.1l1.2-1.3 4.4-3.5 3.5-3.4c0.9-1.1-0.1-2.2-0.1-2.2zm-9.9 6.4-0.2 0.4v0.2h-0.2l-0.2 0.2c-0.5-2-1.1-4.6-1.8-7.3 1.2 0.2 7.3 1.3 8.7 1.6l-6.3 4.9zm-0.8 23.8c-0.4 13.9-3.4 21.2-7.9 27.7-2.5 3.6-5.6 6.9-9.5 10-5.5 3.9-13.5 7.7-23.9 8.6-5.4 0.5-15.8-0.5-22.2-3.3-8.6-3.3-15-9.7-20.5-16.5l-4.5-5.8-1.4-0.5c-8-3.2-12.8-6-21-14.3-1.6-2-4.5-6.1-5.6-8.5 1 0 2.7 0.4 4.6 1.2 6.8 2.6 12.5 6.4 18.4 8.6 3.3 1.1 6.4 2.2 10.1 1.7 6.3-0.5 13.1-3.6 19.6-9.3 5.1-4.4 9.5-10 12.4-15.8l2.6-5.4c3.1-6.8 8.9-17.7 19.9-20.4 5.6-1.4 9.7-1.1 13.5 0.9 4.1 1.8 7.3 5 10 9.9 2.5 5.9 5.5 20.1 5.4 31.2z"/>
  <path class="cls-1" d="m63.9 68c-1.9 1.4-5.8 3.9-10.3 6.5-1.4 0.9-3.5 2.3-4.4 3.5-0.4 3 1.4 4 2.7 4.9 4.7 3.7 11.2 6.1 19.2 6.7 7.9 0.5 14.9-1.5 18.7-3.5 5.3-2.6 9.6-7.2 11.8-12.2 2-4 3.5-11.3 1.6-16.5-0.8-1.9-3.7-0.9-3 1.6 0.9 6.1-0.3 12.8-5.8 18.4-3.4 3.1-8.9 7-16.3 7.8-8.7 0.8-14.6-0.6-19-2.6-2.1-1.1-5.2-2.6-6.3-3.8 1.2-0.8 3.1-2.2 5.8-3.7 3.6-2.2 7.4-4.7 6.6-6.5l-0.4-0.6h-0.9z"/>
  <path class="cls-2" d="m113.9 28.5c-1.3 0-3.1 1.9-2.8 3.5 0.4 2.4 3.4 2.6 4.5 1.6 2.2-1.6 1.3-5.1-1.7-5.1z"/>
  <path class="cls-1" d="m104.1 58.6"/>
</svg>